<svg width="21" height="18" viewBox="0 0 21 18" fill="none" xmlns="http://www.w3.org/2000/svg">
<path d="M12.9595 0.79211L20.3453 8.18311C20.3806 8.20909 20.414 8.23749 20.4453 8.26811C20.5114 8.33502 20.5669 8.41155 20.6101 8.49511C20.7292 8.7065 20.7614 8.95592 20.7001 9.19067C20.6387 9.42541 20.4886 9.6271 20.2814 9.75311L12.9595 17.0791C12.7837 17.2547 12.5455 17.3532 12.2972 17.353C12.0489 17.3528 11.8108 17.2539 11.6354 17.0781C11.4599 16.9023 11.3615 16.6639 11.3616 16.4154C11.3618 16.1669 11.4607 15.9287 11.6364 15.7531L17.5023 9.88311L1.74324 9.88311C1.50086 9.87518 1.27105 9.77324 1.10239 9.59886C0.933737 9.42447 0.839443 9.19129 0.839443 8.94861C0.839443 8.70593 0.933737 8.47275 1.10239 8.29836C1.27105 8.12398 1.50086 8.02205 1.74324 8.01411L17.5403 8.01411L11.6364 2.11311C11.5447 2.02745 11.4712 1.9242 11.4203 1.80951C11.3693 1.69482 11.342 1.57105 11.3399 1.44556C11.3378 1.32007 11.3609 1.19544 11.4079 1.0791C11.455 0.962753 11.5249 0.857077 11.6137 0.768364C11.7024 0.679651 11.808 0.60972 11.9243 0.562738C12.0406 0.515757 12.1652 0.492687 12.2906 0.494904C12.416 0.49712 12.5397 0.524576 12.6542 0.575638C12.7688 0.626699 12.8719 0.700319 12.9575 0.79211H12.9595Z" fill="black"/>
</svg>
