<svg width="45" height="26" viewBox="0 0 45 26" fill="none" xmlns="http://www.w3.org/2000/svg">
    <svg width="22" height="26" viewBox="0 0 22 26" fill="none" xmlns="http://www.w3.org/2000/svg">
        <path
            d="M18.3305 10.9315C19.0743 9.79993 19.499 8.44999 19.4744 7.00267C19.4086 3.12967 16.111 0.0518799 12.1479 0.0518799H1.08345C0.565214 0.0518799 0.14502 0.462588 0.14502 0.969124V24.7518C0.14502 25.2583 0.565214 25.669 1.08345 25.669H13.4429C18.0301 25.669 21.8301 22.0753 21.8488 17.5916C21.8603 14.8438 20.4662 12.4076 18.3305 10.9315ZM4.99905 4.79632H12.2424C13.5541 4.79632 14.6214 5.83944 14.6214 7.12168C14.6214 8.40382 13.5542 9.44703 12.2424 9.44703H4.99905V4.79632ZM13.5507 20.9246H4.99905V14.1915H12.2424H13.5506C15.4497 14.1915 16.9949 15.7017 16.9949 17.558C16.9949 19.4143 15.4498 20.9246 13.5507 20.9246Z"
            fill="#282E2E" />

    </svg>

    <svg x="23" y="5" width="21" height="21" viewBox="0 0 21 21" fill="none"
        xmlns="http://www.w3.org/2000/svg">
        <path
            d="M20.1152 10.9051C20.1152 5.36729 15.6497 0.862061 10.1608 0.862061C4.67181 0.862061 0.206299 5.36738 0.206299 10.9051C0.206299 16.4428 4.6719 20.9482 10.1608 20.9482C13.4914 20.9482 16.5862 19.2794 18.4394 16.484C18.6705 16.1355 18.8803 15.7713 19.0666 15.396C19.2017 15.1235 18.9966 14.8064 18.6868 14.8057L13.7935 14.7938C13.6852 14.7935 13.5826 14.8367 13.505 14.9105C12.581 15.7886 11.4482 16.2037 10.1608 16.2037C7.72892 16.2037 5.69038 14.4259 5.18292 12.056H19.1411C19.6791 12.056 20.1152 11.6297 20.1152 11.1038V10.9051ZM10.1608 5.6065C11.9418 5.6065 13.5116 6.56048 14.4242 8.00175H5.89743C6.8099 6.56048 8.37979 5.6065 10.1608 5.6065Z"
            fill="#282E2E" />
    </svg>

    <svg x="27" width="12" height="4" viewBox="0 0 12 4" fill="none" xmlns="http://www.w3.org/2000/svg">
        <path
            d="M10.297 3.68325H1.46783C1.05589 3.68325 0.721924 3.35683 0.721924 2.95418V0.789247C0.721924 0.386602 1.05589 0.0601807 1.46783 0.0601807H10.297C10.7089 0.0601807 11.0429 0.386602 11.0429 0.789247V2.95418C11.0429 3.35692 10.7089 3.68325 10.297 3.68325Z"
            fill="#282E2E" />
    </svg>
</svg>