<svg width="36" height="31" viewBox="0 0 36 31" fill="none" xmlns="http://www.w3.org/2000/svg">
<path d="M34.5139 4.33004C33.7368 4.67488 32.9301 4.94692 32.1024 5.14387C33.0145 4.27654 33.7002 3.19169 34.0871 1.98081C34.1976 1.63512 33.8223 1.3362 33.5104 1.52129C32.3589 2.20481 31.1185 2.71758 29.8236 3.04552C29.7484 3.06455 29.6709 3.07419 29.5932 3.07419C29.3573 3.07419 29.128 2.98655 28.9476 2.82749C27.5699 1.61242 25.798 0.943237 23.9584 0.943237C23.1624 0.943237 22.3587 1.0674 21.5695 1.31231C19.1245 2.07118 17.238 4.0894 16.6461 6.57944C16.4241 7.51341 16.364 8.44824 16.4673 9.3579C16.4792 9.46243 16.4298 9.53539 16.3993 9.56961C16.3459 9.6296 16.2701 9.66399 16.1914 9.66399C16.1826 9.66399 16.1735 9.66356 16.1646 9.66271C10.8126 9.16513 5.9864 6.5849 2.575 2.39741C2.40104 2.18382 2.06745 2.21001 1.92879 2.44801C1.26075 3.59489 0.907714 4.90664 0.907714 6.24143C0.907714 8.28705 1.72899 10.2148 3.15555 11.6202C2.55564 11.4778 1.97501 11.2537 1.43565 10.9539C1.17471 10.8088 0.85365 10.9953 0.849984 11.2939C0.812633 14.3328 2.5906 17.0369 5.25406 18.2545C5.20043 18.2558 5.14679 18.2564 5.09307 18.2564C4.67087 18.2564 4.24339 18.2156 3.82265 18.1351C3.52879 18.079 3.28192 18.358 3.37317 18.643C4.23768 21.3439 6.56158 23.3348 9.34254 23.7868C7.03451 25.3372 4.34674 26.1551 1.54932 26.1551L0.677218 26.1545C0.408518 26.1545 0.181262 26.3298 0.112787 26.5903C0.0453345 26.8468 0.169579 27.1174 0.398712 27.2507C3.55096 29.0865 7.14656 30.0568 10.7983 30.0568C13.9949 30.0568 16.9849 29.422 19.6856 28.1701C22.1613 27.0225 24.3491 25.3819 26.1882 23.2941C27.9013 21.3491 29.241 19.1039 30.1698 16.6209C31.0552 14.254 31.5232 11.7285 31.5232 9.31728V9.20242C31.5231 8.81526 31.6981 8.45097 32.0034 8.20299C33.1618 7.26176 34.1706 6.15379 35.0016 4.90988C35.221 4.58144 34.875 4.16979 34.5139 4.33004Z" fill="#282E2E"/>
</svg>
