<svg width="13" height="24" viewBox="0 0 13 24" fill="none" xmlns="http://www.w3.org/2000/svg">
<path d="M12.2464 11.2789C12.3434 11.3723 12.4206 11.4842 12.4733 11.6081C12.526 11.732 12.5532 11.8653 12.5532 11.9999C12.5532 12.1346 12.526 12.2679 12.4733 12.3918C12.4206 12.5157 12.3434 12.6276 12.2464 12.7209L1.6967 22.8719C1.55542 23.0078 1.37732 23.0992 1.18457 23.1346C0.991825 23.17 0.79293 23.1479 0.61263 23.071C0.432331 22.9942 0.278587 22.866 0.170527 22.7024C0.0624666 22.5388 0.00485897 22.347 0.00487137 22.1509L0.00487137 1.84894C0.00485897 1.65284 0.0624666 1.46106 0.170527 1.29746C0.278587 1.13386 0.432331 1.00567 0.61263 0.928835C0.79293 0.851998 0.991825 0.829905 1.18457 0.865306C1.37732 0.900708 1.55542 0.99204 1.6967 1.12794L12.2464 11.2789Z" fill="#282E2E"/>
</svg>
